<svg xmlns="http://www.w3.org/2000/svg" viewBox="0 0 1920 953" preserveAspectRatio="xMidYMid" width="1920" height="953" xmlns:xlink="http://www.w3.org/1999/xlink" style="shape-rendering:auto;display:block;background-position-x:0%;background-position-y:0%;background-size:auto;background-origin:padding-box;background-clip:border-box;background:scroll rgb(8, 28, 84) none  repeat;width:1920px;height:953px;;animation:none"><g><linearGradient y2="1" y1="0" x2="0" x1="0" id="lg-2qagz67cx3l-0"><stop offset="0" stop-color="#081c54"></stop>

  
<stop offset="1" stop-color="#225ea8"></stop></linearGradient>
<linearGradient y2="1" y1="0" x2="0" x1="0" id="lg-2qagz67cx3l-1"><stop offset="0" stop-color="#225ea8"></stop>

  
<stop offset="1" stop-color="#1d91c0"></stop></linearGradient>
<linearGradient y2="1" y1="0" x2="0" x1="0" id="lg-2qagz67cx3l-2"><stop offset="0" stop-color="#1d91c0"></stop>

  
<stop offset="1" stop-color="#41b6c4"></stop></linearGradient>
<linearGradient y2="1" y1="0" x2="0" x1="0" id="lg-2qagz67cx3l-3"><stop offset="0" stop-color="#41b6c4"></stop>

  
<stop offset="1" stop-color="#7fcdbb"></stop></linearGradient>
<linearGradient y2="1" y1="0" x2="0" x1="0" id="lg-2qagz67cx3l-4"><stop offset="0" stop-color="#7fcdbb"></stop>

  
<stop offset="1" stop-color="#c7e9b4"></stop></linearGradient>
<linearGradient y2="1" y1="0" x2="0" x1="0" id="lg-2qagz67cx3l-5"><stop offset="0" stop-color="#c7e9b4"></stop>

  
<stop offset="1" stop-color="#f3f8cf"></stop></linearGradient>
<linearGradient y2="1" y1="0" x2="0" x1="0" id="lg-2qagz67cx3l-6"><stop offset="0" stop-color="#f3f8cf"></stop>

  
<stop offset="1" stop-color="#081c54"></stop></linearGradient>
<path fill-opacity="0.88" fill="url(#lg-2qagz67cx3l-0)" d="M 0 0 L 0 930.08 Q 192 895.04 384 867.43 T 768 900.65 T 1152 739.34 T 1536 659.35 T 1920 656.57 L 1920 0 Z" style="fill:url('#lg-2qagz67cx3l-0');;animation:none"></path>
<path fill-opacity="0.88" fill="url(#lg-2qagz67cx3l-1)" d="M 0 0 L 0 866.174 Q 192 881.59 384 857.538 T 768 750.04 T 1152 683.17 T 1536 614 T 1920 601.678 L 1920 0 Z" style="fill:url('#lg-2qagz67cx3l-1');;animation:none"></path>
<path fill-opacity="0.88" fill="url(#lg-2qagz67cx3l-2)" d="M 0 0 L 0 697.7 Q 192 737.71 384 708.22 T 768 506.12 T 1152 469.23 T 1536 575.7 T 1920 538.73 L 1920 0 Z" style="fill:url('#lg-2qagz67cx3l-2');;animation:none"></path>
<path fill-opacity="0.88" fill="url(#lg-2qagz67cx3l-3)" d="M 0 0 L 0 601.17 Q 192 501.705 384 470.17 T 768 439.94 T 1152 493.835 T 1536 395.41 T 1920 348.01 L 1920 0 Z" style="fill:url('#lg-2qagz67cx3l-3');;animation:none"></path>
<path fill-opacity="0.88" fill="url(#lg-2qagz67cx3l-4)" d="M 0 0 L 0 305.88 Q 192 315.17 384 279.8 T 768 260.75 T 1152 317.58 T 1536 292.13 T 1920 253.87 L 1920 0 Z" style="fill:url('#lg-2qagz67cx3l-4');;animation:none"></path>
<path fill-opacity="0.88" fill="url(#lg-2qagz67cx3l-5)" d="M 0 0 L 0 174.418 Q 192 189.403 384 171.14 T 768 255.586 T 1152 120.787 T 1536 221.349 T 1920 154.312 L 1920 0 Z" style="fill:url('#lg-2qagz67cx3l-5');;animation:none"></path>
<g></g></g><!-- [ldio] generated by https://loading.io --></svg>