<svg xmlns="http://www.w3.org/2000/svg" viewBox="0 0 576 512"><!--!Font Awesome Free 6.6.0 by @fontawesome - https://fontawesome.com License - https://fontawesome.com/license/free Copyright 2024 Fonticons, Inc.--><path d="M571.3 251.3l-22.6-22.6c-6.3-6.3-16.4-6.3-22.6 0L480 274.8l-46.1-46.1c-6.3-6.3-16.4-6.3-22.6 0l-22.6 22.6c-6.3 6.3-6.3 16.4 0 22.6L434.8 320l-46.1 46.1c-6.3 6.3-6.3 16.4 0 22.6l22.6 22.6c6.3 6.3 16.4 6.3 22.6 0L480 365.3l46.1 46.1c6.3 6.3 16.4 6.3 22.6 0l22.6-22.6c6.3-6.3 6.3-16.4 0-22.6L525.3 320l46.1-46.1c6.3-6.3 6.3-16.4 0-22.6zM552 0H307.7c-14.5 0-27.3 9.8-31 23.9l-84.8 322.8-58.4-106.1A32 32 0 0 0 105.5 224H24c-13.3 0-24 10.7-24 24v48c0 13.3 10.8 24 24 24h43.6l88.9 163.7C169 503.5 186.3 512 204.9 512c17.3 0 44.4-9 54.3-41.5L357 96H552c13.3 0 24-10.8 24-24V24c0-13.3-10.8-24-24-24z"/></svg>